<svg width="78" height="78" viewBox="0 0 78 78" fill="none" xmlns="http://www.w3.org/2000/svg">
<mask id="mask0_208_4114" style="mask-type:alpha" maskUnits="userSpaceOnUse" x="0" y="0" width="78" height="78">
<rect width="78" height="78" rx="12" fill="white"/>
</mask>
<g mask="url(#mask0_208_4114)">
<circle cx="1.5" cy="13.5" r="1.5" fill="#D9D9D9"/>
<circle cx="1.5" cy="29.5" r="1.5" fill="#D9D9D9"/>
<circle cx="1.5" cy="45.5" r="1.5" fill="#D9D9D9"/>
<circle cx="1.5" cy="61.5" r="1.5" fill="#D9D9D9"/>
<circle cx="1.5" cy="77.5" r="1.5" fill="#D9D9D9"/>
<circle cx="1.5" cy="9.5" r="1.5" fill="#D9D9D9"/>
<circle cx="1.5" cy="25.5" r="1.5" fill="#D9D9D9"/>
<circle cx="1.5" cy="41.5" r="1.5" fill="#D9D9D9"/>
<circle cx="1.5" cy="57.5" r="1.5" fill="#D9D9D9"/>
<circle cx="1.5" cy="73.5" r="1.5" fill="#D9D9D9"/>
<circle cx="1.5" cy="5.5" r="1.5" fill="#D9D9D9"/>
<circle cx="1.5" cy="21.5" r="1.5" fill="#D9D9D9"/>
<circle cx="1.5" cy="37.5" r="1.5" fill="#D9D9D9"/>
<circle cx="1.5" cy="53.5" r="1.5" fill="#D9D9D9"/>
<circle cx="1.5" cy="69.5" r="1.5" fill="#D9D9D9"/>
<circle cx="1.5" cy="1.5" r="1.5" fill="#D9D9D9"/>
<circle cx="1.5" cy="17.5" r="1.5" fill="#D9D9D9"/>
<circle cx="1.5" cy="33.5" r="1.5" fill="#D9D9D9"/>
<circle cx="1.5" cy="49.5" r="1.5" fill="#D9D9D9"/>
<circle cx="1.5" cy="65.5" r="1.5" fill="#D9D9D9"/>
<circle cx="6.5" cy="13.5" r="1.5" fill="#D9D9D9"/>
<circle cx="6.5" cy="29.5" r="1.5" fill="#D9D9D9"/>
<circle cx="6.5" cy="45.5" r="1.5" fill="#D9D9D9"/>
<circle cx="6.5" cy="61.5" r="1.5" fill="#D9D9D9"/>
<circle cx="6.5" cy="77.5" r="1.5" fill="#D9D9D9"/>
<circle cx="6.5" cy="9.5" r="1.5" fill="#D9D9D9"/>
<circle cx="6.5" cy="25.5" r="1.5" fill="#D9D9D9"/>
<circle cx="6.5" cy="41.5" r="1.5" fill="#D9D9D9"/>
<circle cx="6.5" cy="57.5" r="1.5" fill="#D9D9D9"/>
<circle cx="6.5" cy="73.5" r="1.5" fill="#D9D9D9"/>
<circle cx="6.5" cy="5.5" r="1.5" fill="#D9D9D9"/>
<circle cx="6.5" cy="21.5" r="1.5" fill="#D9D9D9"/>
<circle cx="6.5" cy="37.5" r="1.5" fill="#D9D9D9"/>
<circle cx="6.5" cy="53.5" r="1.5" fill="#D9D9D9"/>
<circle cx="6.5" cy="69.5" r="1.5" fill="#D9D9D9"/>
<circle cx="6.5" cy="1.5" r="1.5" fill="#D9D9D9"/>
<circle cx="6.5" cy="17.5" r="1.5" fill="#D9D9D9"/>
<circle cx="6.5" cy="33.5" r="1.5" fill="#D9D9D9"/>
<circle cx="6.5" cy="49.5" r="1.5" fill="#D9D9D9"/>
<circle cx="6.5" cy="65.5" r="1.5" fill="#D9D9D9"/>
<circle cx="11.5" cy="13.5" r="1.5" fill="#D9D9D9"/>
<circle cx="11.5" cy="29.5" r="1.5" fill="#D9D9D9"/>
<circle cx="11.5" cy="45.5" r="1.5" fill="#D9D9D9"/>
<circle cx="11.5" cy="61.5" r="1.5" fill="#D9D9D9"/>
<circle cx="11.5" cy="77.5" r="1.5" fill="#D9D9D9"/>
<circle cx="11.5" cy="9.5" r="1.5" fill="#D9D9D9"/>
<circle cx="11.5" cy="25.5" r="1.5" fill="#D9D9D9"/>
<circle cx="11.5" cy="41.5" r="1.5" fill="#D9D9D9"/>
<circle cx="11.5" cy="57.5" r="1.5" fill="#D9D9D9"/>
<circle cx="11.5" cy="73.5" r="1.5" fill="#D9D9D9"/>
<circle cx="11.5" cy="5.5" r="1.5" fill="#D9D9D9"/>
<circle cx="11.5" cy="21.5" r="1.5" fill="#D9D9D9"/>
<circle cx="11.5" cy="37.5" r="1.5" fill="#D9D9D9"/>
<circle cx="11.5" cy="53.5" r="1.5" fill="#D9D9D9"/>
<circle cx="11.5" cy="69.5" r="1.5" fill="#D9D9D9"/>
<circle cx="11.5" cy="1.5" r="1.5" fill="#D9D9D9"/>
<circle cx="11.5" cy="17.5" r="1.5" fill="#D9D9D9"/>
<circle cx="11.5" cy="33.5" r="1.5" fill="#D9D9D9"/>
<circle cx="11.5" cy="49.5" r="1.5" fill="#D9D9D9"/>
<circle cx="11.5" cy="65.5" r="1.5" fill="#D9D9D9"/>
<circle cx="16.5" cy="13.5" r="1.5" fill="#D9D9D9"/>
<circle cx="16.5" cy="29.5" r="1.5" fill="#D9D9D9"/>
<circle cx="16.5" cy="45.5" r="1.5" fill="#D9D9D9"/>
<circle cx="16.5" cy="61.5" r="1.5" fill="#D9D9D9"/>
<circle cx="16.5" cy="77.5" r="1.5" fill="#D9D9D9"/>
<circle cx="16.5" cy="9.5" r="1.5" fill="#D9D9D9"/>
<circle cx="16.5" cy="25.5" r="1.5" fill="#D9D9D9"/>
<circle cx="16.5" cy="41.5" r="1.5" fill="#D9D9D9"/>
<circle cx="16.5" cy="57.5" r="1.5" fill="#D9D9D9"/>
<circle cx="16.5" cy="73.5" r="1.5" fill="#D9D9D9"/>
<circle cx="16.5" cy="5.5" r="1.5" fill="#D9D9D9"/>
<circle cx="16.5" cy="21.5" r="1.5" fill="#D9D9D9"/>
<circle cx="16.5" cy="37.5" r="1.5" fill="#D9D9D9"/>
<circle cx="16.5" cy="53.5" r="1.5" fill="#D9D9D9"/>
<circle cx="16.5" cy="69.5" r="1.5" fill="#D9D9D9"/>
<circle cx="16.5" cy="1.5" r="1.5" fill="#D9D9D9"/>
<circle cx="16.5" cy="17.5" r="1.5" fill="#D9D9D9"/>
<circle cx="16.5" cy="33.5" r="1.5" fill="#D9D9D9"/>
<circle cx="16.5" cy="49.5" r="1.5" fill="#D9D9D9"/>
<circle cx="16.5" cy="65.5" r="1.5" fill="#D9D9D9"/>
<circle cx="21.5" cy="13.5" r="1.5" fill="#D9D9D9"/>
<circle cx="21.5" cy="29.5" r="1.5" fill="#D9D9D9"/>
<circle cx="21.5" cy="45.5" r="1.5" fill="#D9D9D9"/>
<circle cx="21.5" cy="61.5" r="1.5" fill="#D9D9D9"/>
<circle cx="21.5" cy="77.5" r="1.5" fill="#D9D9D9"/>
<circle cx="21.5" cy="9.5" r="1.5" fill="#D9D9D9"/>
<circle cx="21.5" cy="25.5" r="1.5" fill="#D9D9D9"/>
<circle cx="21.5" cy="41.5" r="1.5" fill="#D9D9D9"/>
<circle cx="21.5" cy="57.5" r="1.5" fill="#D9D9D9"/>
<circle cx="21.5" cy="73.5" r="1.5" fill="#D9D9D9"/>
<circle cx="21.5" cy="5.5" r="1.5" fill="#D9D9D9"/>
<circle cx="21.5" cy="21.5" r="1.5" fill="#D9D9D9"/>
<circle cx="21.5" cy="37.5" r="1.5" fill="#D9D9D9"/>
<circle cx="21.5" cy="53.5" r="1.5" fill="#D9D9D9"/>
<circle cx="21.5" cy="69.5" r="1.5" fill="#D9D9D9"/>
<circle cx="21.5" cy="1.5" r="1.5" fill="#D9D9D9"/>
<circle cx="21.5" cy="17.5" r="1.5" fill="#D9D9D9"/>
<circle cx="21.5" cy="33.5" r="1.5" fill="#D9D9D9"/>
<circle cx="21.5" cy="49.5" r="1.5" fill="#D9D9D9"/>
<circle cx="21.5" cy="65.5" r="1.5" fill="#D9D9D9"/>
<circle cx="26.5" cy="13.5" r="1.5" fill="#D9D9D9"/>
<circle cx="26.5" cy="29.5" r="1.5" fill="#D9D9D9"/>
<circle cx="26.5" cy="45.5" r="1.5" fill="#D9D9D9"/>
<circle cx="26.5" cy="61.5" r="1.5" fill="#D9D9D9"/>
<circle cx="26.5" cy="77.5" r="1.5" fill="#D9D9D9"/>
<circle cx="26.5" cy="9.5" r="1.5" fill="#D9D9D9"/>
<circle cx="26.5" cy="25.5" r="1.5" fill="#D9D9D9"/>
<circle cx="26.5" cy="41.5" r="1.5" fill="#D9D9D9"/>
<circle cx="26.5" cy="57.5" r="1.5" fill="#D9D9D9"/>
<circle cx="26.5" cy="73.5" r="1.5" fill="#D9D9D9"/>
<circle cx="26.5" cy="5.5" r="1.5" fill="#D9D9D9"/>
<circle cx="26.5" cy="21.5" r="1.5" fill="#D9D9D9"/>
<circle cx="26.5" cy="37.5" r="1.5" fill="#D9D9D9"/>
<circle cx="26.5" cy="53.5" r="1.5" fill="#D9D9D9"/>
<circle cx="26.5" cy="69.5" r="1.5" fill="#D9D9D9"/>
<circle cx="26.5" cy="1.5" r="1.5" fill="#D9D9D9"/>
<circle cx="26.5" cy="17.5" r="1.5" fill="#D9D9D9"/>
<circle cx="26.5" cy="33.5" r="1.5" fill="#D9D9D9"/>
<circle cx="26.5" cy="49.5" r="1.5" fill="#D9D9D9"/>
<circle cx="26.5" cy="65.5" r="1.5" fill="#D9D9D9"/>
<circle cx="31.5" cy="13.5" r="1.5" fill="#D9D9D9"/>
<circle cx="31.5" cy="29.5" r="1.5" fill="#D9D9D9"/>
<circle cx="31.5" cy="45.5" r="1.5" fill="#D9D9D9"/>
<circle cx="31.5" cy="61.5" r="1.5" fill="#D9D9D9"/>
<circle cx="31.5" cy="77.5" r="1.5" fill="#D9D9D9"/>
<circle cx="31.5" cy="9.5" r="1.5" fill="#D9D9D9"/>
<circle cx="31.5" cy="25.5" r="1.5" fill="#D9D9D9"/>
<circle cx="31.5" cy="41.5" r="1.5" fill="#D9D9D9"/>
<circle cx="31.5" cy="57.5" r="1.5" fill="#D9D9D9"/>
<circle cx="31.5" cy="73.5" r="1.5" fill="#D9D9D9"/>
<circle cx="31.5" cy="5.5" r="1.5" fill="#D9D9D9"/>
<circle cx="31.5" cy="21.5" r="1.5" fill="#D9D9D9"/>
<circle cx="31.5" cy="37.5" r="1.5" fill="#D9D9D9"/>
<circle cx="31.5" cy="53.5" r="1.5" fill="#D9D9D9"/>
<circle cx="31.5" cy="69.5" r="1.5" fill="#D9D9D9"/>
<circle cx="31.5" cy="1.5" r="1.5" fill="#D9D9D9"/>
<circle cx="31.5" cy="17.5" r="1.5" fill="#D9D9D9"/>
<circle cx="31.5" cy="33.5" r="1.5" fill="#D9D9D9"/>
<circle cx="31.5" cy="49.5" r="1.5" fill="#D9D9D9"/>
<circle cx="31.5" cy="65.5" r="1.5" fill="#D9D9D9"/>
<circle cx="36.5" cy="13.5" r="1.5" fill="#D9D9D9"/>
<circle cx="36.5" cy="29.5" r="1.5" fill="#D9D9D9"/>
<circle cx="36.5" cy="45.5" r="1.5" fill="#D9D9D9"/>
<circle cx="36.5" cy="61.5" r="1.5" fill="#D9D9D9"/>
<circle cx="36.5" cy="77.5" r="1.5" fill="#D9D9D9"/>
<circle cx="36.5" cy="9.5" r="1.5" fill="#D9D9D9"/>
<circle cx="36.5" cy="25.5" r="1.5" fill="#D9D9D9"/>
<circle cx="36.5" cy="41.5" r="1.5" fill="#D9D9D9"/>
<circle cx="36.5" cy="57.5" r="1.5" fill="#D9D9D9"/>
<circle cx="36.5" cy="73.5" r="1.5" fill="#D9D9D9"/>
<circle cx="36.5" cy="5.5" r="1.5" fill="#D9D9D9"/>
<circle cx="36.5" cy="21.5" r="1.5" fill="#D9D9D9"/>
<circle cx="36.5" cy="37.5" r="1.5" fill="#D9D9D9"/>
<circle cx="36.5" cy="53.5" r="1.5" fill="#D9D9D9"/>
<circle cx="36.5" cy="69.5" r="1.5" fill="#D9D9D9"/>
<circle cx="36.5" cy="1.5" r="1.5" fill="#D9D9D9"/>
<circle cx="36.5" cy="17.5" r="1.5" fill="#D9D9D9"/>
<circle cx="36.5" cy="33.5" r="1.5" fill="#D9D9D9"/>
<circle cx="36.5" cy="49.5" r="1.5" fill="#D9D9D9"/>
<circle cx="36.5" cy="65.5" r="1.5" fill="#D9D9D9"/>
<circle cx="41.5" cy="13.5" r="1.5" fill="#D9D9D9"/>
<circle cx="41.5" cy="29.5" r="1.5" fill="#D9D9D9"/>
<circle cx="41.5" cy="45.5" r="1.5" fill="#D9D9D9"/>
<circle cx="41.5" cy="61.5" r="1.5" fill="#D9D9D9"/>
<circle cx="41.5" cy="77.5" r="1.5" fill="#D9D9D9"/>
<circle cx="41.5" cy="9.5" r="1.5" fill="#D9D9D9"/>
<circle cx="41.5" cy="25.5" r="1.5" fill="#D9D9D9"/>
<circle cx="41.5" cy="41.5" r="1.5" fill="#D9D9D9"/>
<circle cx="41.5" cy="57.5" r="1.5" fill="#D9D9D9"/>
<circle cx="41.5" cy="73.5" r="1.5" fill="#D9D9D9"/>
<circle cx="41.5" cy="5.5" r="1.5" fill="#D9D9D9"/>
<circle cx="41.5" cy="21.5" r="1.5" fill="#D9D9D9"/>
<circle cx="41.5" cy="37.5" r="1.5" fill="#D9D9D9"/>
<circle cx="41.5" cy="53.5" r="1.5" fill="#D9D9D9"/>
<circle cx="41.5" cy="69.5" r="1.5" fill="#D9D9D9"/>
<circle cx="41.5" cy="1.5" r="1.5" fill="#D9D9D9"/>
<circle cx="41.5" cy="17.5" r="1.5" fill="#D9D9D9"/>
<circle cx="41.5" cy="33.5" r="1.5" fill="#D9D9D9"/>
<circle cx="41.5" cy="49.5" r="1.5" fill="#D9D9D9"/>
<circle cx="41.5" cy="65.5" r="1.5" fill="#D9D9D9"/>
<circle cx="46.5" cy="13.5" r="1.5" fill="#D9D9D9"/>
<circle cx="46.5" cy="29.5" r="1.5" fill="#D9D9D9"/>
<circle cx="46.5" cy="45.5" r="1.5" fill="#D9D9D9"/>
<circle cx="46.5" cy="61.5" r="1.5" fill="#D9D9D9"/>
<circle cx="46.5" cy="77.5" r="1.5" fill="#D9D9D9"/>
<circle cx="46.5" cy="9.5" r="1.5" fill="#D9D9D9"/>
<circle cx="46.5" cy="25.5" r="1.5" fill="#D9D9D9"/>
<circle cx="46.5" cy="41.5" r="1.5" fill="#D9D9D9"/>
<circle cx="46.5" cy="57.5" r="1.5" fill="#D9D9D9"/>
<circle cx="46.5" cy="73.5" r="1.5" fill="#D9D9D9"/>
<circle cx="46.5" cy="5.5" r="1.5" fill="#D9D9D9"/>
<circle cx="46.5" cy="21.5" r="1.5" fill="#D9D9D9"/>
<circle cx="46.5" cy="37.5" r="1.5" fill="#D9D9D9"/>
<circle cx="46.5" cy="53.5" r="1.5" fill="#D9D9D9"/>
<circle cx="46.5" cy="69.5" r="1.5" fill="#D9D9D9"/>
<circle cx="46.5" cy="1.5" r="1.5" fill="#D9D9D9"/>
<circle cx="46.5" cy="17.5" r="1.5" fill="#D9D9D9"/>
<circle cx="46.5" cy="33.5" r="1.5" fill="#D9D9D9"/>
<circle cx="46.5" cy="49.5" r="1.5" fill="#D9D9D9"/>
<circle cx="46.5" cy="65.5" r="1.5" fill="#D9D9D9"/>
<circle cx="51.5" cy="13.5" r="1.5" fill="#D9D9D9"/>
<circle cx="51.5" cy="29.5" r="1.5" fill="#D9D9D9"/>
<circle cx="51.5" cy="45.5" r="1.5" fill="#D9D9D9"/>
<circle cx="51.5" cy="61.5" r="1.5" fill="#D9D9D9"/>
<circle cx="51.5" cy="77.5" r="1.5" fill="#D9D9D9"/>
<circle cx="51.5" cy="9.5" r="1.5" fill="#D9D9D9"/>
<circle cx="51.5" cy="25.5" r="1.5" fill="#D9D9D9"/>
<circle cx="51.5" cy="41.5" r="1.5" fill="#D9D9D9"/>
<circle cx="51.5" cy="57.5" r="1.5" fill="#D9D9D9"/>
<circle cx="51.5" cy="73.5" r="1.5" fill="#D9D9D9"/>
<circle cx="51.5" cy="5.5" r="1.5" fill="#D9D9D9"/>
<circle cx="51.5" cy="21.5" r="1.5" fill="#D9D9D9"/>
<circle cx="51.5" cy="37.5" r="1.5" fill="#D9D9D9"/>
<circle cx="51.5" cy="53.5" r="1.5" fill="#D9D9D9"/>
<circle cx="51.5" cy="69.5" r="1.5" fill="#D9D9D9"/>
<circle cx="51.5" cy="1.5" r="1.5" fill="#D9D9D9"/>
<circle cx="51.5" cy="17.5" r="1.5" fill="#D9D9D9"/>
<circle cx="51.5" cy="33.5" r="1.5" fill="#D9D9D9"/>
<circle cx="51.5" cy="49.5" r="1.5" fill="#D9D9D9"/>
<circle cx="51.5" cy="65.5" r="1.5" fill="#D9D9D9"/>
<circle cx="56.5" cy="13.5" r="1.5" fill="#D9D9D9"/>
<circle cx="56.5" cy="29.5" r="1.5" fill="#D9D9D9"/>
<circle cx="56.5" cy="45.5" r="1.5" fill="#D9D9D9"/>
<circle cx="56.5" cy="61.5" r="1.5" fill="#D9D9D9"/>
<circle cx="56.5" cy="77.5" r="1.5" fill="#D9D9D9"/>
<circle cx="56.5" cy="9.5" r="1.5" fill="#D9D9D9"/>
<circle cx="56.5" cy="25.5" r="1.5" fill="#D9D9D9"/>
<circle cx="56.5" cy="41.5" r="1.5" fill="#D9D9D9"/>
<circle cx="56.5" cy="57.5" r="1.5" fill="#D9D9D9"/>
<circle cx="56.5" cy="73.5" r="1.5" fill="#D9D9D9"/>
<circle cx="56.5" cy="5.5" r="1.5" fill="#D9D9D9"/>
<circle cx="56.5" cy="21.5" r="1.5" fill="#D9D9D9"/>
<circle cx="56.5" cy="37.5" r="1.5" fill="#D9D9D9"/>
<circle cx="56.5" cy="53.5" r="1.5" fill="#D9D9D9"/>
<circle cx="56.5" cy="69.5" r="1.5" fill="#D9D9D9"/>
<circle cx="56.5" cy="1.5" r="1.5" fill="#D9D9D9"/>
<circle cx="56.5" cy="17.5" r="1.5" fill="#D9D9D9"/>
<circle cx="56.5" cy="33.5" r="1.5" fill="#D9D9D9"/>
<circle cx="56.5" cy="49.5" r="1.5" fill="#D9D9D9"/>
<circle cx="56.5" cy="65.5" r="1.5" fill="#D9D9D9"/>
<circle cx="61.5" cy="13.5" r="1.5" fill="#D9D9D9"/>
<circle cx="61.5" cy="29.5" r="1.5" fill="#D9D9D9"/>
<circle cx="61.5" cy="45.5" r="1.5" fill="#D9D9D9"/>
<circle cx="61.5" cy="61.5" r="1.5" fill="#D9D9D9"/>
<circle cx="61.5" cy="77.5" r="1.5" fill="#D9D9D9"/>
<circle cx="61.5" cy="9.5" r="1.5" fill="#D9D9D9"/>
<circle cx="61.5" cy="25.5" r="1.5" fill="#D9D9D9"/>
<circle cx="61.5" cy="41.5" r="1.5" fill="#D9D9D9"/>
<circle cx="61.5" cy="57.5" r="1.5" fill="#D9D9D9"/>
<circle cx="61.5" cy="73.5" r="1.5" fill="#D9D9D9"/>
<circle cx="61.5" cy="5.5" r="1.5" fill="#D9D9D9"/>
<circle cx="61.5" cy="21.5" r="1.5" fill="#D9D9D9"/>
<circle cx="61.5" cy="37.5" r="1.5" fill="#D9D9D9"/>
<circle cx="61.5" cy="53.5" r="1.5" fill="#D9D9D9"/>
<circle cx="61.5" cy="69.5" r="1.5" fill="#D9D9D9"/>
<circle cx="61.5" cy="1.5" r="1.5" fill="#D9D9D9"/>
<circle cx="61.5" cy="17.5" r="1.5" fill="#D9D9D9"/>
<circle cx="61.5" cy="33.5" r="1.5" fill="#D9D9D9"/>
<circle cx="61.5" cy="49.5" r="1.5" fill="#D9D9D9"/>
<circle cx="61.5" cy="65.5" r="1.5" fill="#D9D9D9"/>
<circle cx="66.5" cy="13.5" r="1.5" fill="#D9D9D9"/>
<circle cx="66.5" cy="29.5" r="1.5" fill="#D9D9D9"/>
<circle cx="66.5" cy="45.5" r="1.5" fill="#D9D9D9"/>
<circle cx="66.5" cy="61.5" r="1.5" fill="#D9D9D9"/>
<circle cx="66.5" cy="77.5" r="1.5" fill="#D9D9D9"/>
<circle cx="66.5" cy="9.5" r="1.5" fill="#D9D9D9"/>
<circle cx="66.5" cy="25.5" r="1.5" fill="#D9D9D9"/>
<circle cx="66.5" cy="41.5" r="1.5" fill="#D9D9D9"/>
<circle cx="66.5" cy="57.5" r="1.5" fill="#D9D9D9"/>
<circle cx="66.5" cy="73.5" r="1.5" fill="#D9D9D9"/>
<circle cx="66.5" cy="5.5" r="1.5" fill="#D9D9D9"/>
<circle cx="66.5" cy="21.5" r="1.5" fill="#D9D9D9"/>
<circle cx="66.5" cy="37.5" r="1.5" fill="#D9D9D9"/>
<circle cx="66.5" cy="53.5" r="1.5" fill="#D9D9D9"/>
<circle cx="66.5" cy="69.5" r="1.5" fill="#D9D9D9"/>
<circle cx="66.5" cy="1.5" r="1.5" fill="#D9D9D9"/>
<circle cx="66.5" cy="17.5" r="1.5" fill="#D9D9D9"/>
<circle cx="66.5" cy="33.5" r="1.5" fill="#D9D9D9"/>
<circle cx="66.5" cy="49.5" r="1.5" fill="#D9D9D9"/>
<circle cx="66.5" cy="65.5" r="1.5" fill="#D9D9D9"/>
<circle cx="71.5" cy="13.5" r="1.5" fill="#D9D9D9"/>
<circle cx="71.5" cy="29.5" r="1.5" fill="#D9D9D9"/>
<circle cx="71.5" cy="45.5" r="1.5" fill="#D9D9D9"/>
<circle cx="71.5" cy="61.5" r="1.5" fill="#D9D9D9"/>
<circle cx="71.5" cy="77.5" r="1.5" fill="#D9D9D9"/>
<circle cx="71.5" cy="9.5" r="1.5" fill="#D9D9D9"/>
<circle cx="71.5" cy="25.5" r="1.5" fill="#D9D9D9"/>
<circle cx="71.5" cy="41.5" r="1.5" fill="#D9D9D9"/>
<circle cx="71.5" cy="57.5" r="1.5" fill="#D9D9D9"/>
<circle cx="71.5" cy="73.5" r="1.5" fill="#D9D9D9"/>
<circle cx="71.5" cy="5.5" r="1.5" fill="#D9D9D9"/>
<circle cx="71.5" cy="21.5" r="1.5" fill="#D9D9D9"/>
<circle cx="71.5" cy="37.5" r="1.5" fill="#D9D9D9"/>
<circle cx="71.5" cy="53.5" r="1.5" fill="#D9D9D9"/>
<circle cx="71.5" cy="69.5" r="1.5" fill="#D9D9D9"/>
<circle cx="71.5" cy="1.5" r="1.5" fill="#D9D9D9"/>
<circle cx="71.5" cy="17.5" r="1.5" fill="#D9D9D9"/>
<circle cx="71.5" cy="33.5" r="1.5" fill="#D9D9D9"/>
<circle cx="71.5" cy="49.5" r="1.5" fill="#D9D9D9"/>
<circle cx="71.5" cy="65.5" r="1.5" fill="#D9D9D9"/>
<circle cx="76.5" cy="13.5" r="1.5" fill="#D9D9D9"/>
<circle cx="76.5" cy="29.5" r="1.5" fill="#D9D9D9"/>
<circle cx="76.5" cy="45.5" r="1.5" fill="#D9D9D9"/>
<circle cx="76.5" cy="61.5" r="1.5" fill="#D9D9D9"/>
<circle cx="76.5" cy="77.5" r="1.5" fill="#D9D9D9"/>
<circle cx="76.5" cy="9.5" r="1.5" fill="#D9D9D9"/>
<circle cx="76.5" cy="25.5" r="1.5" fill="#D9D9D9"/>
<circle cx="76.5" cy="41.5" r="1.5" fill="#D9D9D9"/>
<circle cx="76.5" cy="57.5" r="1.5" fill="#D9D9D9"/>
<circle cx="76.5" cy="73.5" r="1.5" fill="#D9D9D9"/>
<circle cx="76.5" cy="5.5" r="1.5" fill="#D9D9D9"/>
<circle cx="76.5" cy="21.5" r="1.5" fill="#D9D9D9"/>
<circle cx="76.5" cy="37.5" r="1.5" fill="#D9D9D9"/>
<circle cx="76.5" cy="53.5" r="1.5" fill="#D9D9D9"/>
<circle cx="76.5" cy="69.5" r="1.5" fill="#D9D9D9"/>
<circle cx="76.5" cy="1.5" r="1.5" fill="#D9D9D9"/>
<circle cx="76.5" cy="17.5" r="1.5" fill="#D9D9D9"/>
<circle cx="76.5" cy="33.5" r="1.5" fill="#D9D9D9"/>
<circle cx="76.5" cy="49.5" r="1.5" fill="#D9D9D9"/>
<circle cx="76.5" cy="65.5" r="1.5" fill="#D9D9D9"/>
</g>
</svg>
