<svg width="24" height="24" viewBox="0 0 24 24" fill="none" xmlns="http://www.w3.org/2000/svg">
<g clip-path="url(#clip0_302_9)">
<path d="M24 0H0V24H24V0Z" fill="#1E1E1E"/>
<mask id="mask0_302_9" style="mask-type:luminance" maskUnits="userSpaceOnUse" x="6" y="4" width="12" height="16">
<path d="M17.0667 4.53333H6.93335V19.7333H17.0667V4.53333Z" fill="white"/>
</mask>
<g mask="url(#mask0_302_9)">
<path d="M12 12.1333C12 11.4614 12.2669 10.8171 12.742 10.342C13.2171 9.86688 13.8614 9.59998 14.5333 9.59998C15.2052 9.59998 15.8496 9.86688 16.3247 10.342C16.7998 10.8171 17.0667 11.4614 17.0667 12.1333C17.0667 12.8052 16.7998 13.4495 16.3247 13.9246C15.8496 14.3997 15.2052 14.6666 14.5333 14.6666C13.8614 14.6666 13.2171 14.3997 12.742 13.9246C12.2669 13.4495 12 12.8052 12 12.1333Z" fill="#1ABCFE"/>
<path d="M6.93335 17.2C6.93335 16.5281 7.20026 15.8838 7.67535 15.4087C8.15044 14.9336 8.79479 14.6667 9.46668 14.6667H12V17.2C12 17.8719 11.7331 18.5162 11.258 18.9913C10.7829 19.4664 10.1386 19.7333 9.46668 19.7333C8.79479 19.7333 8.15044 19.4664 7.67535 18.9913C7.20026 18.5162 6.93335 17.8719 6.93335 17.2Z" fill="#0ACF83"/>
<path d="M12 4.53333V9.59999H14.5333C15.2052 9.59999 15.8496 9.33308 16.3247 8.85799C16.7998 8.3829 17.0667 7.73855 17.0667 7.06666C17.0667 6.39477 16.7998 5.75042 16.3247 5.27532C15.8496 4.80023 15.2052 4.53333 14.5333 4.53333H12Z" fill="#FF7262"/>
<path d="M6.93335 7.06666C6.93335 7.73855 7.20026 8.3829 7.67535 8.85799C8.15044 9.33308 8.79479 9.59999 9.46668 9.59999H12V4.53333H9.46668C8.79479 4.53333 8.15044 4.80023 7.67535 5.27532C7.20026 5.75042 6.93335 6.39477 6.93335 7.06666Z" fill="#F24E1E"/>
<path d="M6.93335 12.1333C6.93335 12.8052 7.20026 13.4495 7.67535 13.9246C8.15044 14.3997 8.79479 14.6666 9.46668 14.6666H12V9.59998H9.46668C8.79479 9.59998 8.15044 9.86688 7.67535 10.342C7.20026 10.8171 6.93335 11.4614 6.93335 12.1333Z" fill="#A259FF"/>
</g>
</g>
<defs>
<clipPath id="clip0_302_9">
<rect width="24" height="24" fill="white"/>
</clipPath>
</defs>
</svg>
